M48
;GenerationSoftware,Autodesk,EAGLE,9.1.0*%
;CreationDate,2018-11-01T15:44:47Z*%
FMAT,2
ICI,OFF
METRIC,TZ,000.000
T9C0.300
T8C0.350
T7C0.600
T6C0.700
T5C1.016
T4C1.200
T3C1.321
T2C3.200
%
G90
M71
T2
X-13000Y26000
X68000Y12000
X68000Y76000
X-13000Y76000
T3
X8890Y72390
X31750Y72390
T4
X-276Y72543
X3224Y72543
T5
X37760Y12580
X31115Y51070
X33655Y51070
X36195Y51070
X40300Y12580
X-4031Y53491
X40300Y15120
X37760Y15120
X40300Y17660
X37760Y17660
X-4031Y61111
X-4031Y58571
X-4031Y56031
X22971Y43321
X28575Y51070
X-11640Y50314
X-9100Y50314
X-11640Y47774
X-9100Y47774
X-11640Y45234
X-9100Y45234
X27610Y65525
X25070Y65525
X5449Y24943
X5449Y22403
X2909Y24943
X2909Y22403
X369Y24943
X369Y22403
X10749Y63261
X27668Y17715
X30208Y17715
X27668Y15175
X30208Y15175
X27668Y12635
X30208Y12635
X24270Y39010
X24270Y36470
X24270Y33930
X-1951Y63261
X589Y63261
X3129Y63261
X5669Y63261
X8209Y63261
X-4031Y48411
X13289Y63261
X15829Y63261
X18369Y63261
X20909Y63261
X22971Y61101
X22971Y58561
X22971Y56021
X22971Y53481
X22971Y50941
X22971Y48401
X22971Y45861
X-4031Y50951
X-4031Y43331
X-4031Y45871
X68580Y64770
X68580Y22860
X68580Y31750
X68580Y34290
X68580Y36830
X68580Y39370
X68580Y48260
X68580Y50800
X68580Y53340
X68580Y55880
X-2171Y22403
X68580Y67310
X68580Y69850
X68580Y72390
X36270Y32130
X33730Y32130
X31190Y32130
X28650Y32130
X-2171Y24943
X68580Y17780
X68580Y20320
X8999Y19926
X8999Y17386
X8999Y14846
X8999Y12306
X-6426Y12337
X-6426Y14877
X-6426Y17417
X5029Y33293
X-6426Y19957
X68580Y15240
X10109Y35833
X10109Y33293
X7569Y35833
X5029Y35833
X7569Y33293
T6
X46990Y36810
X-684Y39239
X-5764Y39239
X46990Y20300
X46990Y67330
X46990Y69830
X46990Y50820
X46990Y53320
X46990Y34310
X46990Y17800
T7
X57150Y41910
X54610Y41910
X52070Y41910
X49530Y41910
X46990Y41910
X44450Y41910
X62230Y29210
X59690Y29210
X57150Y29210
X54610Y29210
X52070Y29210
X49530Y29210
X46990Y29210
X44450Y29210
X62230Y58420
X59690Y58420
X57150Y58420
X54610Y58420
X59690Y12700
X62230Y25400
X59690Y25400
X57150Y25400
X54610Y25400
X52070Y25400
X49530Y25400
X46990Y25400
X44450Y25400
X62230Y12700
X59690Y41910
X57150Y12700
X54610Y12700
X52070Y12700
X49530Y12700
X46990Y12700
X44450Y12700
X62230Y41910
X44450Y74930
X49530Y58420
X44450Y62230
X46990Y62230
X49530Y62230
X52070Y62230
X54610Y62230
X57150Y62230
X59690Y62230
X62230Y62230
X46990Y74930
X49530Y74930
X52070Y74930
X54610Y74930
X57150Y74930
X62230Y74930
X59690Y74930
X52070Y58420
X46990Y58420
X44450Y58420
X62230Y45720
X59690Y45720
X57150Y45720
X54610Y45720
X52070Y45720
X49530Y45720
X46990Y45720
X44450Y45720
T8
X17069Y56693
X26682Y31023
X16154Y57607
T9
X2948Y43965
X2000Y44230
X12065Y41275
X8255Y41910
X10160Y38100
X13970Y43180
X26035Y41910
X43180Y63500
X13335Y42545
X24765Y40640
X42545Y47625
X12700Y41910
X38735Y29210
X42545Y31115
M30