G04 EAGLE Gerber X2 export*
%TF.Part,Single*%
%TF.FileFunction,Paste,Top*%
%TF.FilePolarity,Positive*%
%TF.GenerationSoftware,Autodesk,EAGLE,9.1.0*%
%TF.CreationDate,2018-11-01T15:44:49Z*%
G75*
%MOMM*%
%FSLAX34Y34*%
%LPD*%
%AMOC8*
5,1,8,0,0,1.08239X$1,22.5*%
G01*
%ADD10R,1.100000X1.000000*%
%ADD11R,1.600000X1.800000*%
%ADD12R,1.400000X1.200000*%
%ADD13R,0.500000X0.800000*%
%ADD14R,1.800000X1.600000*%
%ADD15R,1.000000X1.700000*%
%ADD16R,0.508000X1.473200*%


D10*
G36*
X157459Y457328D02*
X165236Y465105D01*
X172307Y458034D01*
X164530Y450257D01*
X157459Y457328D01*
G37*
G36*
X145438Y445307D02*
X153215Y453084D01*
X160286Y446013D01*
X152509Y438236D01*
X145438Y445307D01*
G37*
G36*
X164137Y564277D02*
X171914Y556500D01*
X164843Y549429D01*
X157066Y557206D01*
X164137Y564277D01*
G37*
G36*
X152117Y576298D02*
X159894Y568521D01*
X152823Y561450D01*
X145046Y569227D01*
X152117Y576298D01*
G37*
G36*
X40029Y562128D02*
X32144Y554461D01*
X25173Y561630D01*
X33058Y569297D01*
X40029Y562128D01*
G37*
G36*
X52216Y573980D02*
X44331Y566313D01*
X37360Y573482D01*
X45245Y581149D01*
X52216Y573980D01*
G37*
G36*
X40455Y452041D02*
X48232Y444264D01*
X41161Y437193D01*
X33384Y444970D01*
X40455Y452041D01*
G37*
G36*
X28435Y464062D02*
X36212Y456285D01*
X29141Y449214D01*
X21364Y456991D01*
X28435Y464062D01*
G37*
D11*
X9369Y355293D03*
X-18631Y355293D03*
X-74339Y354393D03*
X-46339Y354393D03*
D12*
X389978Y320800D03*
X389978Y350800D03*
X389422Y511942D03*
X389422Y541942D03*
D11*
X132612Y311475D03*
X160612Y311475D03*
X160870Y289418D03*
X132870Y289418D03*
X88Y291268D03*
X-27912Y291268D03*
D13*
G36*
X63740Y423554D02*
X60204Y427090D01*
X65860Y432746D01*
X69396Y429210D01*
X63740Y423554D01*
G37*
G36*
X49598Y409412D02*
X46062Y412948D01*
X51718Y418604D01*
X55254Y415068D01*
X49598Y409412D01*
G37*
D14*
X389378Y403400D03*
X389378Y375400D03*
X389522Y595542D03*
X389522Y567542D03*
D11*
X124182Y177861D03*
X152182Y177861D03*
X124313Y148285D03*
X152313Y148285D03*
X-128568Y176364D03*
X-100568Y176364D03*
X-128437Y148285D03*
X-100437Y148285D03*
X-18135Y328241D03*
X-46135Y328241D03*
D14*
X343400Y123000D03*
X343400Y151000D03*
X343400Y176200D03*
X343400Y204200D03*
X-89206Y636159D03*
X-89206Y664159D03*
D15*
X-83661Y607957D03*
X-83661Y544957D03*
X-121661Y607957D03*
X-121661Y544957D03*
D16*
G36*
X23864Y485953D02*
X20272Y489545D01*
X30688Y499961D01*
X34280Y496369D01*
X23864Y485953D01*
G37*
G36*
X29432Y480386D02*
X25840Y483978D01*
X36256Y494394D01*
X39848Y490802D01*
X29432Y480386D01*
G37*
G36*
X35179Y474638D02*
X31587Y478230D01*
X42003Y488646D01*
X45595Y485054D01*
X35179Y474638D01*
G37*
G36*
X40747Y469071D02*
X37155Y472663D01*
X47571Y483079D01*
X51163Y479487D01*
X40747Y469071D01*
G37*
G36*
X46495Y463323D02*
X42903Y466915D01*
X53319Y477331D01*
X56911Y473739D01*
X46495Y463323D01*
G37*
G36*
X52062Y457755D02*
X48470Y461347D01*
X58886Y471763D01*
X62478Y468171D01*
X52062Y457755D01*
G37*
G36*
X57630Y452188D02*
X54038Y455780D01*
X64454Y466196D01*
X68046Y462604D01*
X57630Y452188D01*
G37*
G36*
X63377Y446440D02*
X59785Y450032D01*
X70201Y460448D01*
X73793Y456856D01*
X63377Y446440D01*
G37*
G36*
X68945Y440873D02*
X65353Y444465D01*
X75769Y454881D01*
X79361Y451289D01*
X68945Y440873D01*
G37*
G36*
X74693Y435125D02*
X71101Y438717D01*
X81517Y449133D01*
X85109Y445541D01*
X74693Y435125D01*
G37*
G36*
X80260Y429557D02*
X76668Y433149D01*
X87084Y443565D01*
X90676Y439973D01*
X80260Y429557D01*
G37*
G36*
X101454Y439973D02*
X105046Y443565D01*
X115462Y433149D01*
X111870Y429557D01*
X101454Y439973D01*
G37*
G36*
X107022Y445541D02*
X110614Y449133D01*
X121030Y438717D01*
X117438Y435125D01*
X107022Y445541D01*
G37*
G36*
X112769Y451289D02*
X116361Y454881D01*
X126777Y444465D01*
X123185Y440873D01*
X112769Y451289D01*
G37*
G36*
X118337Y456856D02*
X121929Y460448D01*
X132345Y450032D01*
X128753Y446440D01*
X118337Y456856D01*
G37*
G36*
X124084Y462604D02*
X127676Y466196D01*
X138092Y455780D01*
X134500Y452188D01*
X124084Y462604D01*
G37*
G36*
X129652Y468171D02*
X133244Y471763D01*
X143660Y461347D01*
X140068Y457755D01*
X129652Y468171D01*
G37*
G36*
X135220Y473739D02*
X138812Y477331D01*
X149228Y466915D01*
X145636Y463323D01*
X135220Y473739D01*
G37*
G36*
X140967Y479487D02*
X144559Y483079D01*
X154975Y472663D01*
X151383Y469071D01*
X140967Y479487D01*
G37*
G36*
X146535Y485054D02*
X150127Y488646D01*
X160543Y478230D01*
X156951Y474638D01*
X146535Y485054D01*
G37*
G36*
X152282Y490802D02*
X155874Y494394D01*
X166290Y483978D01*
X162698Y480386D01*
X152282Y490802D01*
G37*
G36*
X157850Y496369D02*
X161442Y499961D01*
X171858Y489545D01*
X168266Y485953D01*
X157850Y496369D01*
G37*
G36*
X161442Y510739D02*
X157850Y514331D01*
X168266Y524747D01*
X171858Y521155D01*
X161442Y510739D01*
G37*
G36*
X155874Y516307D02*
X152282Y519899D01*
X162698Y530315D01*
X166290Y526723D01*
X155874Y516307D01*
G37*
G36*
X150127Y522054D02*
X146535Y525646D01*
X156951Y536062D01*
X160543Y532470D01*
X150127Y522054D01*
G37*
G36*
X144559Y527622D02*
X140967Y531214D01*
X151383Y541630D01*
X154975Y538038D01*
X144559Y527622D01*
G37*
G36*
X138812Y533369D02*
X135220Y536961D01*
X145636Y547377D01*
X149228Y543785D01*
X138812Y533369D01*
G37*
G36*
X133244Y538937D02*
X129652Y542529D01*
X140068Y552945D01*
X143660Y549353D01*
X133244Y538937D01*
G37*
G36*
X127676Y544505D02*
X124084Y548097D01*
X134500Y558513D01*
X138092Y554921D01*
X127676Y544505D01*
G37*
G36*
X121929Y550252D02*
X118337Y553844D01*
X128753Y564260D01*
X132345Y560668D01*
X121929Y550252D01*
G37*
G36*
X116361Y555820D02*
X112769Y559412D01*
X123185Y569828D01*
X126777Y566236D01*
X116361Y555820D01*
G37*
G36*
X110614Y561567D02*
X107022Y565159D01*
X117438Y575575D01*
X121030Y571983D01*
X110614Y561567D01*
G37*
G36*
X105046Y567135D02*
X101454Y570727D01*
X111870Y581143D01*
X115462Y577551D01*
X105046Y567135D01*
G37*
G36*
X76668Y577551D02*
X80260Y581143D01*
X90676Y570727D01*
X87084Y567135D01*
X76668Y577551D01*
G37*
G36*
X71101Y571983D02*
X74693Y575575D01*
X85109Y565159D01*
X81517Y561567D01*
X71101Y571983D01*
G37*
G36*
X65353Y566236D02*
X68945Y569828D01*
X79361Y559412D01*
X75769Y555820D01*
X65353Y566236D01*
G37*
G36*
X59785Y560668D02*
X63377Y564260D01*
X73793Y553844D01*
X70201Y550252D01*
X59785Y560668D01*
G37*
G36*
X54038Y554921D02*
X57630Y558513D01*
X68046Y548097D01*
X64454Y544505D01*
X54038Y554921D01*
G37*
G36*
X48470Y549353D02*
X52062Y552945D01*
X62478Y542529D01*
X58886Y538937D01*
X48470Y549353D01*
G37*
G36*
X42903Y543785D02*
X46495Y547377D01*
X56911Y536961D01*
X53319Y533369D01*
X42903Y543785D01*
G37*
G36*
X37155Y538038D02*
X40747Y541630D01*
X51163Y531214D01*
X47571Y527622D01*
X37155Y538038D01*
G37*
G36*
X31587Y532470D02*
X35179Y536062D01*
X45595Y525646D01*
X42003Y522054D01*
X31587Y532470D01*
G37*
G36*
X25840Y526723D02*
X29432Y530315D01*
X39848Y519899D01*
X36256Y516307D01*
X25840Y526723D01*
G37*
G36*
X20272Y521155D02*
X23864Y524747D01*
X34280Y514331D01*
X30688Y510739D01*
X20272Y521155D01*
G37*
D14*
X-115011Y636557D03*
X-115011Y664557D03*
M02*
