G04 EAGLE Gerber X2 export*
%TF.Part,Single*%
%TF.FileFunction,Soldermask,Bot,1*%
%TF.FilePolarity,Negative*%
%TF.GenerationSoftware,Autodesk,EAGLE,9.1.0*%
%TF.CreationDate,2018-11-01T15:44:49Z*%
G75*
%MOMM*%
%FSLAX34Y34*%
%LPD*%
%AMOC8*
5,1,8,0,0,1.08239X$1,22.5*%
G01*
%ADD10C,3.403200*%
%ADD11C,2.082800*%
%ADD12R,2.235200X2.235200*%
%ADD13C,2.235200*%
%ADD14C,1.854200*%
%ADD15R,1.854200X1.854200*%
%ADD16C,2.184400*%
%ADD17P,1.594577X8X112.500000*%
%ADD18C,0.959600*%
%ADD19C,0.909600*%


D10*
X-130000Y760000D03*
X680000Y760000D03*
X680000Y120000D03*
X-130000Y260000D03*
D11*
X286500Y321300D03*
X311900Y321300D03*
X337300Y321300D03*
X362700Y321300D03*
D12*
X-2762Y725435D03*
D13*
X32238Y725435D03*
D14*
X469900Y673300D03*
D15*
X469900Y698300D03*
D14*
X469900Y508200D03*
D15*
X469900Y533200D03*
D14*
X469900Y343100D03*
D15*
X469900Y368100D03*
D14*
X469900Y178000D03*
D15*
X469900Y203000D03*
D11*
X685800Y723900D03*
X685800Y698500D03*
X685800Y673100D03*
X685800Y647700D03*
X685800Y558800D03*
X685800Y533400D03*
X685800Y508000D03*
X685800Y482600D03*
X685800Y393700D03*
X685800Y368300D03*
X685800Y342900D03*
X685800Y317500D03*
X685800Y228600D03*
X685800Y203200D03*
X685800Y177800D03*
X685800Y152400D03*
X101093Y358325D03*
X101093Y332925D03*
X75693Y358325D03*
X75693Y332925D03*
X50293Y358325D03*
X50293Y332925D03*
X-64263Y199565D03*
X-64263Y174165D03*
X-64263Y148765D03*
X-64263Y123365D03*
X89992Y123058D03*
X89992Y148458D03*
X89992Y173858D03*
X89992Y199258D03*
X-21710Y224035D03*
X-21710Y249435D03*
X3690Y224035D03*
X3690Y249435D03*
X29090Y224035D03*
X29090Y249435D03*
X54490Y224035D03*
X54490Y249435D03*
X250700Y655250D03*
X276100Y655250D03*
D16*
X98806Y723900D02*
X78994Y723900D01*
X307594Y723900D02*
X327406Y723900D01*
D11*
X-91004Y452336D03*
X-116404Y452336D03*
X-91004Y477736D03*
X-116404Y477736D03*
X-91004Y503136D03*
X-116404Y503136D03*
X285750Y510700D03*
X311150Y510700D03*
X336550Y510700D03*
X361950Y510700D03*
X403000Y125800D03*
X377600Y125800D03*
X403000Y151200D03*
X377600Y151200D03*
X403000Y176600D03*
X377600Y176600D03*
X-40307Y611111D03*
X-40307Y585711D03*
X-40307Y560311D03*
X-40307Y534911D03*
X-40307Y509511D03*
X-40307Y484111D03*
X-40307Y458711D03*
X-40307Y433311D03*
X229711Y433207D03*
X229711Y458607D03*
X229711Y484007D03*
X229711Y509407D03*
X229711Y534807D03*
X229711Y560207D03*
X229711Y585607D03*
X229711Y611007D03*
X209093Y632611D03*
X183693Y632611D03*
X158293Y632611D03*
X132893Y632611D03*
X107493Y632611D03*
X82093Y632611D03*
X56693Y632611D03*
X31293Y632611D03*
X5893Y632611D03*
X-19507Y632611D03*
X242700Y339300D03*
X242700Y364700D03*
X242700Y390100D03*
D17*
X444500Y622300D03*
X469900Y622300D03*
X495300Y622300D03*
X520700Y622300D03*
X546100Y622300D03*
X571500Y622300D03*
X596900Y622300D03*
X622300Y622300D03*
X444500Y749300D03*
X469900Y749300D03*
X495300Y749300D03*
X520700Y749300D03*
X546100Y749300D03*
X571500Y749300D03*
X596900Y749300D03*
X622300Y749300D03*
X444500Y457200D03*
X469900Y457200D03*
X495300Y457200D03*
X520700Y457200D03*
X546100Y457200D03*
X571500Y457200D03*
X596900Y457200D03*
X622300Y457200D03*
X444500Y584200D03*
X469900Y584200D03*
X495300Y584200D03*
X520700Y584200D03*
X546100Y584200D03*
X571500Y584200D03*
X596900Y584200D03*
X622300Y584200D03*
X444500Y292100D03*
X469900Y292100D03*
X495300Y292100D03*
X520700Y292100D03*
X546100Y292100D03*
X571500Y292100D03*
X596900Y292100D03*
X622300Y292100D03*
X444500Y419100D03*
X469900Y419100D03*
X495300Y419100D03*
X520700Y419100D03*
X546100Y419100D03*
X571500Y419100D03*
X596900Y419100D03*
X622300Y419100D03*
X444500Y127000D03*
X469900Y127000D03*
X495300Y127000D03*
X520700Y127000D03*
X546100Y127000D03*
X571500Y127000D03*
X596900Y127000D03*
X622300Y127000D03*
X444500Y254000D03*
X469900Y254000D03*
X495300Y254000D03*
X520700Y254000D03*
X546100Y254000D03*
X571500Y254000D03*
X596900Y254000D03*
X622300Y254000D03*
D14*
X-6835Y392393D03*
X-57635Y392393D03*
D11*
X302079Y126347D03*
X276679Y126347D03*
X302079Y151747D03*
X276679Y151747D03*
X302079Y177147D03*
X276679Y177147D03*
D18*
X161544Y576072D03*
D19*
X29484Y439651D03*
D18*
X170688Y566928D03*
D19*
X20004Y442303D03*
D18*
X266820Y310230D03*
D19*
X120650Y412750D03*
X82550Y419100D03*
X425450Y311150D03*
X387350Y292100D03*
X127000Y419100D03*
X425450Y476250D03*
X247650Y406400D03*
X133350Y425450D03*
X431800Y635000D03*
X260350Y419100D03*
X139700Y431800D03*
X101600Y381000D03*
M02*
